<?xml version="1.0" encoding="utf-8"?>
<!-- Generator: Adobe Illustrator 18.0.0, SVG Export Plug-In . SVG Version: 6.00 Build 0)  -->
<!DOCTYPE svg PUBLIC "-//W3C//DTD SVG 1.1//EN" "http://www.w3.org/Graphics/SVG/1.1/DTD/svg11.dtd">
<svg version="1.1" id="Ebene_1" xmlns="http://www.w3.org/2000/svg" xmlns:xlink="http://www.w3.org/1999/xlink" x="0px" y="0px"
	 width="135px" height="36px" viewBox="0 0 181 47" style="enable-background:new 0 0 181 47;" xml:space="preserve">
<g>
	<polygon style="fill:#FAC494;" points="27.6,36.7 27.6,47 37.9,36.7 	"/>
	<polygon style="fill:#EE7203;" points="37.9,36.7 37.9,0 0,0 0,47 27.1,47 27.6,47 27.6,36.7 	"/>
	<path style="fill:#FFFFFF;" d="M22.1,14.3c0,2.2-1.8,4-4,4s-4-1.8-4-4c0-2.2,1.8-4,4-4S22.1,12.1,22.1,14.3 M25.7,14.3
		c0-4.2-3.4-7.6-7.7-7.6c-4.2,0-7.7,3.4-7.7,7.6c0,3.5,2.4,6.4,5.6,7.3v13.7h0.1h4h4.6v-4.1h-4.6v-9.6
		C23.3,20.7,25.7,17.8,25.7,14.3"/>
	<path style="fill:#929292;" d="M49.7,36.7H53V9.5L49.7,10V36.7z M61,25.8v-1.6c0-2.7,1.1-4.1,4.2-4.1c3.1,0,4,1.5,4,4.1v1.6H61z
		 M61,28.5h11.4v-4c0-3.9-1.5-7.2-7.2-7.2c-5.7,0-7.5,3.2-7.5,7.1v5.7c0,4.3,1.9,7,7.6,7c2.2,0,4.6-0.4,6.3-0.9l0-2.8
		c-2.1,0.5-4.2,0.9-6,0.9c-3.7,0-4.6-1.2-4.6-4.2V28.5z M79.6,22.5c0-1.7,0.4-2.4,3.2-2.4c1.5,0,3.6,0.2,5.2,0.5l0-2.7
		c-1.5-0.4-3.4-0.6-5.1-0.6c-5,0-6.6,1.6-6.6,5.1c0,3.9,0.4,4.9,5.2,6.1c3.9,0.9,4,1.2,4,3.2s-0.5,2.6-3.5,2.6
		c-1.6,0-3.7-0.3-5.4-0.8l0,2.7c1.6,0.5,3.8,0.8,5.6,0.8c5.5,0,6.6-1.8,6.6-5.5c0-3.8-0.4-4.4-5.9-5.8C79.7,25,79.6,24.6,79.6,22.5
		 M96.1,25.8v-1.6c0-2.7,1.1-4.1,4.2-4.1c3.1,0,4,1.5,4,4.1v1.6H96.1z M96.1,28.5h11.4v-4c0-3.9-1.5-7.2-7.2-7.2
		c-5.7,0-7.5,3.2-7.5,7.1v5.7c0,4.3,1.9,7,7.6,7c2.2,0,4.6-0.4,6.3-0.9l0-2.8c-2.1,0.5-4.2,0.9-6,0.9c-3.7,0-4.6-1.2-4.6-4.2V28.5z
		 M132,36.7l4.1-19h-3.1l-3.2,15.7l-4.6-15.7h-4l-4.6,15.7l-3.2-15.7h-3.1l4.1,19h4.2l4.6-16.1l4.6,16.1H132z M142.2,25.8v-1.6
		c0-2.7,1.1-4.1,4.2-4.1c3.1,0,4,1.5,4,4.1v1.6H142.2z M142.2,28.5h11.4v-4c0-3.9-1.5-7.2-7.2-7.2c-5.7,0-7.5,3.2-7.5,7.1v5.7
		c0,4.3,1.9,7,7.6,7c2.2,0,4.6-0.4,6.3-0.9l0-2.8c-2.1,0.5-4.2,0.9-6,0.9c-3.7,0-4.6-1.2-4.6-4.2V28.5z M161.2,23.6
		c1.5-1,3.3-2.2,5-3.1l0-3.2c-1.9,0.8-3.9,1.9-5.3,3l-0.2-2.6h-2.9v19h3.3V23.6z M181,20.5l0-2.7h-5.1v-5.1l-3.3,0.5v4.7h-3.4l0,0.4
		v2.4h3.4v12.3c0,3.2,1.5,4.3,4.8,4.3c1.2,0,2.5-0.2,3.5-0.6l0-2.7c-1.2,0.3-2.1,0.5-3,0.5c-1.8,0-2-0.7-2-2.1V20.5H181z"/>
</g>
</svg>
